<?xml version="1.0" encoding="UTF-8"?>
<svg width="11px" height="16px" viewBox="0 0 14 20" version="1.1" xmlns="http://www.w3.org/2000/svg" xmlns:xlink="http://www.w3.org/1999/xlink">
    <!-- Generator: Sketch 40.1 (33804) - http://www.bohemiancoding.com/sketch -->
    <title>female [#1363]</title>
    <desc>Created with Sketch.</desc>
    <defs></defs>
    <g id="Icons" stroke="none" stroke-width="1" fill="none" fill-rule="evenodd">
        <g id="Users" transform="translate(-63.000000, -20.000000)" fill="#2FA59A">
            <g id="icons" transform="translate(20.000000, 20.000000)">
                <path d="M50.010058,11.9706719 C48.6753909,11.9706719 47.421643,11.4519427 46.4775859,10.5102499 C43.3327267,7.36894608 45.5904718,1.99511198 50.010058,1.99511198 C54.4266471,1.99511198 56.6903863,7.36595341 53.5425301,10.5102499 C52.5984729,11.4519427 51.344725,11.9706719 50.010058,11.9706719 M54.9411333,11.9207941 C59.3617184,7.50660881 56.1768991,0 50.007061,0 C43.8512088,0 40.6294265,7.50660881 45.0510106,11.9207941 C46.1609021,13.0290788 47.9840813,13.6794853 48.9830836,13.8859794 L48.9830836,16.009776 L45.9860767,16.009776 L45.9860767,18.004888 L48.9830836,18.004888 L48.9830836,20 L50.9810882,20 L50.9810882,18.004888 L53.9780951,18.004888 L53.9780951,16.009776 L50.9810882,16.009776 L50.9810882,13.8859794 C52.9790928,13.6794853 53.8302427,13.0290788 54.9411333,11.9207941" id="female-[#1363]"></path>
            </g>
        </g>
    </g>
</svg>