<?xml version="1.0" standalone="no"?><!DOCTYPE svg PUBLIC "-//W3C//DTD SVG 1.1//EN" "http://www.w3.org/Graphics/SVG/1.1/DTD/svg11.dtd"><svg width="16" height="16" viewBox="0 0 16 16" version="1.1" xmlns="http://www.w3.org/2000/svg" xmlns:xlink="http://www.w3.org/1999/xlink"><defs><style type="text/css"><![CDATA[
@font-face { font-family: ifont; src: url("//at.alicdn.com/t/font_1442373896_4754455.eot?#iefix") format("embedded-opentype"), url("//at.alicdn.com/t/font_1442373896_4754455.woff") format("woff"), url("//at.alicdn.com/t/font_1442373896_4754455.ttf") format("truetype"), url("//at.alicdn.com/t/font_1442373896_4754455.svg#ifont") format("svg"); }

]]></style></defs><g class="transform-group"><g transform="scale(0.015625, 0.015625)"><path d="M712 56.9c-73.4 0-144.2 26.4-200 73.7C456.3 83.3 385.4 56.9 312 56.9c-172 0-312 142.1-312 316.7 0 83 23.7 164.6 70.4 242.5 37 61.7 88.7 121.4 153.6 177.4 72 62.2 161.8 120.5 252.9 164.5 1.3 0.6 2.3 1.1 2.9 1.4 9.9 5 21.1 7.8 32.2 7.8 11.1 0 22.2-2.7 32.2-7.8 0.6-0.2 1.5-0.7 2.9-1.4 91.1-43.9 180.9-102.3 252.9-164.5 64.9-56 116.6-115.7 153.6-177.4 46.7-77.9 70.4-159.6 70.4-242.6C1024 199 884 56.9 712 56.9zM930 537.3c-31.3 0-73.2 0.8-73.2 0.8-7.7-0.5-14.9 1.6-21.5 6.2-6.6 4.7-11.3 9.2-14 13.7-2.2 4.4-6.1 12.9-11.5 25.6-5.6 12.6-10.5 25.6-14.9 38.8-2.2 6.6-5.8 11-10.8 13.1-4.9 2.3-10.1 3.2-15.3 2.9-5.2-0.3-10.2-1.7-14.9-4.4-4.7-2.8-7.8-6.1-9.5-10-1.6-3.8-4.4-10.5-8.2-20.2-3.8-9.6-7.7-19.4-11.5-29.3-5-11.5-10-23.9-14.9-37.1-14.4 45.7-27.3 87.8-38.9 126.4-4.9 16.5-9.9 32.7-14.9 48.8-19.2 61.8-24.7 107.6-60.3 109.1-43.7 0-51.4-71.1-53.8-95.1-2.2-22-4.5-46.6-7-73.5-2.5-27-5-54.5-7.8-82.6-6.1-65.5-13.2-138.8-21.5-219.7-15.4 45.2-29.2 85.6-41.3 121.4-4.9 15.5-10.1 30.6-15.3 45.5-5.2 14.9-9.9 28.4-14.1 40.5-4.1 12.1-7.6 22.3-10.3 30.6l-5 14.9c-2.8 7.1-6.5 13.7-11.2 19.8-4.7 6.1-12 8.8-21.9 8.3-9.9 0-17.4-3.4-22.3-10.4-5-6.9-8.8-14.7-11.6-23.5-1.7-4.4-4.7-12.9-9.1-25.6-4.4-12.7-9.1-25.6-14.1-38.8-6.1-15.4-12.4-32.5-19-51.2-3.9 5-8 9.9-12.4 14.9-3.8 4.4-8 9.2-12.4 14.5-4.4 5.2-8.8 10.3-13.2 15.2-8.8 10.4-17.1 17.7-24.8 21.5-7.7 3.8-16.8 5.2-27.3 4.1-5.5-0.5-12.8-0.7-21.9-0.3-9.1 0.3-18.3 0.3-27.7 0.3-10.5 0.6-63.8 0.9-76.5 0.9l0-64.4 87.3 0c12.1 0 21.9-1.1 29.3-3.3 7.4-2.2 14.7-6.4 21.9-12.4l13.2-13.2c5.5-5.5 11.3-11.8 17.4-19 6.1-7.1 12.3-14.5 18.6-21.9 6.3-7.4 12.3-14.5 17.8-21.1 11-13.8 20.9-19.1 29.8-16.1 8.8 3 15.4 9.5 19.9 19.4l36.4 100c18.8-52.3 35.3-99.7 49.6-142.1 6.1-18.2 12.1-36 18.2-53.3-3.5 9.9 27.9-103.3 58.7-103.3 44.7 0 46.7 47.9 53.7 80.6 4.5 21.2 5.6 45.3 8.7 71.5 3.1 26.1 6.2 52.7 9.5 79.7 7.2 63.3 15.5 134.1 24.8 212.3 12.1-39.7 23.1-75.8 33.1-108.2 3.8-13.8 7.9-27.4 12-40.9 4.1-13.5 8-25.9 11.6-37.1 3.6-11.3 6.5-20.8 8.7-28.5 2.2-7.7 3.9-12.7 5-14.8 2.7-8.8 6.1-15.4 9.9-19.9 3.8-4.4 9.1-7.4 15.7-9.1 12.7-3.3 22.2-1.6 28.6 5.4 6.3 6.9 9.5 13.9 9.5 21 0 6.1-0.5 11.3-1.7 15.7-0.6 2.2-0.8 4.1-0.8 5.8l29.7 80.9c0.6-0.5 1.4-1.7 2.5-3.2 1.7-2.8 4.4-8.6 8.2-17.4 4.5-9.4 11.8-15.5 22-18.6 14.2-4.2 45.2-2.9 47.5-2.9l79.8 0L930.3 537.3z" fill="#ffffff"></path></g></g></svg>