<?xml version="1.0" encoding="UTF-8"?>
<svg width="20px" height="20px" viewBox="0 0 20 20" version="1.1" xmlns="http://www.w3.org/2000/svg" xmlns:xlink="http://www.w3.org/1999/xlink">
    <!-- Generator: Sketch 40.1 (33804) - http://www.bohemiancoding.com/sketch -->
    <title>cup [#801]</title>
    <desc>Created with Sketch.</desc>
    <defs></defs>
    <g id="Icons" stroke="none" stroke-width="1" fill="none" fill-rule="evenodd">
        <g id="Tools" transform="translate(-300.000000, -20.000000)" fill="#2FA59A">
            <g id="icons" transform="translate(20.000000, 20.000000)">
                <path d="M294.5,12 L294.75,10 L297.333,10 L296.895,11.316 C296.758,11.725 296.376,12 295.946,12 L294.5,12 Z M287.641,13.124 L286.25,2 L293.75,2 L292.359,13.124 C292.297,13.624 291.872,14 291.367,14 L288.633,14 C288.128,14 287.703,13.624 287.641,13.124 L287.641,13.124 Z M283.105,11.316 L282.667,10 L285.25,10 L285.5,12 L284.054,12 C283.624,12 283.242,11.725 283.105,11.316 L283.105,11.316 Z M293,20 L293,18 L291,18 L291,16 L292.234,16 C293.243,16 294.094,15.249 294.219,14.248 L294.25,14 L296.558,14 C297.419,14 298.184,13.449 298.456,12.632 L300,8 L295,8 L296,0 L284,0 L285,8 L280,8 L281.544,12.632 C281.816,13.449 282.581,14 283.442,14 L285.75,14 L285.781,14.248 C285.906,15.249 286.757,16 287.766,16 L289,16 L289,18 L287,18 L287,20 L293,20 Z" id="cup-[#801]"></path>
            </g>
        </g>
    </g>
</svg>