<?xml version="1.0" standalone="no"?><!DOCTYPE svg PUBLIC "-//W3C//DTD SVG 1.1//EN" "http://www.w3.org/Graphics/SVG/1.1/DTD/svg11.dtd"><svg width="26" height="26" viewBox="0 0 16 16" version="1.1" xmlns="http://www.w3.org/2000/svg" xmlns:xlink="http://www.w3.org/1999/xlink"><defs><style type="text/css"><![CDATA[
@font-face { font-family: ifont; src: url("//at.alicdn.com/t/font_1442373896_4754455.eot?#iefix") format("embedded-opentype"), url("//at.alicdn.com/t/font_1442373896_4754455.woff") format("woff"), url("//at.alicdn.com/t/font_1442373896_4754455.ttf") format("truetype"), url("//at.alicdn.com/t/font_1442373896_4754455.svg#ifont") format("svg"); }

]]></style></defs><g class="transform-group"><g transform="scale(0.015625, 0.015625)"><path d="M598.2 493l36.3-25.4L634.5 98.7c0-16-11.8-29.2-26.1-29.2L415.6 69.5c-14.4 0-26.1 13.1-26.1 29.2l0 823.8c0 16 11.8 29.2 26.1 29.2l192.8 0c14.4 0 26.1-13.1 26.1-29.2L634.5 555.2l-36.3-25.4C583.7 519.5 583.7 503.2 598.2 493zM557.6 793.4c0 4-2.9 7.2-6.4 7.2L424.5 800.6c-3.5 0-6.4-3.2-6.4-7.2l0-17.6c0-4 2.9-7.2 6.4-7.2l126.7 0c3.5 0 6.4 3.2 6.4 7.2L557.6 793.4zM557.6 656.9c0 4-2.9 7.2-6.4 7.2L424.5 664.1c-3.5 0-6.4-3.2-6.4-7.2l0-17.6c0-4 2.9-7.2 6.4-7.2l126.7 0c3.5 0 6.4 3.2 6.4 7.2L557.6 656.9zM557.6 520.3c0 4-2.9 7.2-6.4 7.2L424.5 527.5c-3.5 0-6.4-3.2-6.4-7.2l0-17.6c0-4 2.9-7.2 6.4-7.2l126.7 0c3.5 0 6.4 3.2 6.4 7.2L557.6 520.3zM557.6 383.8c0 4-2.9 7.2-6.4 7.2L424.5 391c-3.5 0-6.4-3.2-6.4-7.2l0-17.6c0-4 2.9-7.2 6.4-7.2l126.7 0c3.5 0 6.4 3.2 6.4 7.2L557.6 383.8zM557.6 247.3c0 4-2.9 7.2-6.4 7.2L424.5 254.5c-3.5 0-6.4-3.2-6.4-7.2l0-17.6c0-4 2.9-7.2 6.4-7.2l126.7 0c3.5 0 6.4 3.2 6.4 7.2L557.6 247.3z" fill="#ffffff"></path></g></g></svg>