<?xml version="1.0" standalone="no"?><!DOCTYPE svg PUBLIC "-//W3C//DTD SVG 1.1//EN" "http://www.w3.org/Graphics/SVG/1.1/DTD/svg11.dtd"><svg width="16" height="16" viewBox="0 0 16 16" version="1.1" xmlns="http://www.w3.org/2000/svg" xmlns:xlink="http://www.w3.org/1999/xlink"><defs><style type="text/css"><![CDATA[
@font-face { font-family: ifont; src: url("//at.alicdn.com/t/font_1442373896_4754455.eot?#iefix") format("embedded-opentype"), url("//at.alicdn.com/t/font_1442373896_4754455.woff") format("woff"), url("//at.alicdn.com/t/font_1442373896_4754455.ttf") format("truetype"), url("//at.alicdn.com/t/font_1442373896_4754455.svg#ifont") format("svg"); }

]]></style></defs><g class="transform-group"><g transform="scale(0.015625, 0.015625)"><path d="M847.2 36.6 176.8 36.6C109.4 36.6 54.9 91 54.9 158.2l0 689.3c0 67.2 54.6 121.6 121.9 121.6l670.5 0c67.3 0 121.9-54.5 121.9-121.6L969.2 158.2C969.1 91 914.6 36.6 847.2 36.6zM677.5 509.6c-42.1-49.1-104-80.3-173.1-80.3-6.6 0-13 0.5-19.4 1.1l-96.5-147.4-18.7 9.1 64.3 148.4c-37.8 12.4-71.3 34.5-97.8 63.4L168.8 345.1c84-91.4 203.2-148.8 335.9-148.8 137.9 0 261.3 62 345.6 159.7L677.5 509.6z" fill="#ffffff"></path></g></g></svg>